G75*
%MOIN*%
%OFA0B0*%
%FSLAX24Y24*%
%IPPOS*%
%LPD*%
%AMOC8*
5,1,8,0,0,1.08239X$1,22.5*
%
%ADD10C,0.0000*%
D10*
X005180Y005180D02*
X010180Y005180D01*
X010180Y001180D01*
X035680Y001180D01*
X035680Y005180D01*
X040930Y005180D01*
X040930Y027180D01*
X001680Y027180D01*
X001680Y010180D01*
X005180Y010180D01*
X005180Y005180D01*
X011009Y009534D02*
X011011Y009591D01*
X011017Y009648D01*
X011027Y009704D01*
X011040Y009760D01*
X011058Y009814D01*
X011079Y009867D01*
X011104Y009918D01*
X011132Y009968D01*
X011164Y010015D01*
X011198Y010061D01*
X011236Y010103D01*
X011277Y010143D01*
X011320Y010181D01*
X011366Y010215D01*
X011414Y010245D01*
X011464Y010273D01*
X011516Y010297D01*
X011570Y010317D01*
X011624Y010333D01*
X011680Y010346D01*
X011736Y010355D01*
X011793Y010360D01*
X011850Y010361D01*
X011907Y010358D01*
X011964Y010351D01*
X012020Y010340D01*
X012075Y010326D01*
X012129Y010307D01*
X012182Y010285D01*
X012233Y010260D01*
X012282Y010230D01*
X012329Y010198D01*
X012374Y010162D01*
X012416Y010124D01*
X012455Y010082D01*
X012491Y010038D01*
X012525Y009992D01*
X012555Y009943D01*
X012581Y009893D01*
X012604Y009841D01*
X012623Y009787D01*
X012639Y009732D01*
X012651Y009676D01*
X012659Y009619D01*
X012663Y009563D01*
X012663Y009505D01*
X012659Y009449D01*
X012651Y009392D01*
X012639Y009336D01*
X012623Y009281D01*
X012604Y009227D01*
X012581Y009175D01*
X012555Y009125D01*
X012525Y009076D01*
X012491Y009030D01*
X012455Y008986D01*
X012416Y008944D01*
X012374Y008906D01*
X012329Y008870D01*
X012282Y008838D01*
X012233Y008808D01*
X012182Y008783D01*
X012129Y008761D01*
X012075Y008742D01*
X012020Y008728D01*
X011964Y008717D01*
X011907Y008710D01*
X011850Y008707D01*
X011793Y008708D01*
X011736Y008713D01*
X011680Y008722D01*
X011624Y008735D01*
X011570Y008751D01*
X011516Y008771D01*
X011464Y008795D01*
X011414Y008823D01*
X011366Y008853D01*
X011320Y008887D01*
X011277Y008925D01*
X011236Y008965D01*
X011198Y009007D01*
X011164Y009053D01*
X011132Y009100D01*
X011104Y009150D01*
X011079Y009201D01*
X011058Y009254D01*
X011040Y009308D01*
X011027Y009364D01*
X011017Y009420D01*
X011011Y009477D01*
X011009Y009534D01*
X033098Y007435D02*
X033100Y007492D01*
X033106Y007549D01*
X033116Y007605D01*
X033129Y007661D01*
X033147Y007715D01*
X033168Y007768D01*
X033193Y007819D01*
X033221Y007869D01*
X033253Y007916D01*
X033287Y007962D01*
X033325Y008004D01*
X033366Y008044D01*
X033409Y008082D01*
X033455Y008116D01*
X033503Y008146D01*
X033553Y008174D01*
X033605Y008198D01*
X033659Y008218D01*
X033713Y008234D01*
X033769Y008247D01*
X033825Y008256D01*
X033882Y008261D01*
X033939Y008262D01*
X033996Y008259D01*
X034053Y008252D01*
X034109Y008241D01*
X034164Y008227D01*
X034218Y008208D01*
X034271Y008186D01*
X034322Y008161D01*
X034371Y008131D01*
X034418Y008099D01*
X034463Y008063D01*
X034505Y008025D01*
X034544Y007983D01*
X034580Y007939D01*
X034614Y007893D01*
X034644Y007844D01*
X034670Y007794D01*
X034693Y007742D01*
X034712Y007688D01*
X034728Y007633D01*
X034740Y007577D01*
X034748Y007520D01*
X034752Y007464D01*
X034752Y007406D01*
X034748Y007350D01*
X034740Y007293D01*
X034728Y007237D01*
X034712Y007182D01*
X034693Y007128D01*
X034670Y007076D01*
X034644Y007026D01*
X034614Y006977D01*
X034580Y006931D01*
X034544Y006887D01*
X034505Y006845D01*
X034463Y006807D01*
X034418Y006771D01*
X034371Y006739D01*
X034322Y006709D01*
X034271Y006684D01*
X034218Y006662D01*
X034164Y006643D01*
X034109Y006629D01*
X034053Y006618D01*
X033996Y006611D01*
X033939Y006608D01*
X033882Y006609D01*
X033825Y006614D01*
X033769Y006623D01*
X033713Y006636D01*
X033659Y006652D01*
X033605Y006672D01*
X033553Y006696D01*
X033503Y006724D01*
X033455Y006754D01*
X033409Y006788D01*
X033366Y006826D01*
X033325Y006866D01*
X033287Y006908D01*
X033253Y006954D01*
X033221Y007001D01*
X033193Y007051D01*
X033168Y007102D01*
X033147Y007155D01*
X033129Y007209D01*
X033116Y007265D01*
X033106Y007321D01*
X033100Y007378D01*
X033098Y007435D01*
M02*
