%
M48
M72
T01C0.0120
T02C0.1654
%
T01
X12680Y6055
X12430Y7055
X12430Y7430
X11430Y7680
X9680Y11055
X10430Y11555
X12055Y12430
X12930Y13555
X14430Y13055
X15930Y12305
X16180Y11305
X16930Y9930
X17930Y9930
X18305Y11055
X20305Y10305
X20930Y11305
X20930Y11680
X21680Y11055
X22180Y11680
X22930Y11055
X23430Y11180
X24180Y11055
X24930Y10430
X25305Y10430
X25805Y10430
X26555Y10430
X27055Y10805
X26680Y11055
X26430Y11680
X25430Y11680
X24930Y11930
X25430Y12430
X25930Y12680
X26180Y12930
X27680Y13805
X27180Y14055
X28430Y13555
X28805Y13555
X29180Y13555
X30180Y12680
X30680Y12180
X30930Y12930
X32430Y12180
X33680Y13305
X33930Y13055
X34680Y12805
X34180Y12555
X35930Y12305
X36430Y12305
X34430Y11305
X33180Y10055
X33680Y9180
X32680Y8430
X32305Y7680
X31430Y8805
X31805Y9180
X30930Y9680
X28930Y10055
X28430Y10555
X27930Y10430
X28555Y12180
X25555Y11180
X23930Y11930
X23180Y12180
X23930Y13555
X24305Y13555
X24680Y13555
X23680Y15305
X23180Y15805
X21930Y15555
X21680Y16305
X20180Y16305
X19930Y15305
X18430Y15555
X17680Y15555
X17180Y15305
X15930Y15805
X16930Y16305
X15430Y17555
X15680Y17805
X16180Y17805
X16930Y17805
X18430Y18055
X19680Y18305
X20430Y18805
X20180Y20555
X19430Y22305
X17680Y21805
X16680Y21805
X15180Y22305
X13680Y22805
X12430Y24055
X14180Y24305
X15180Y24430
X15680Y25055
X16180Y24805
X17930Y23555
X18180Y23805
X19180Y24055
X17430Y23055
X18680Y25305
X20055Y25555
X22555Y23305
X23180Y24180
X24180Y24430
X25180Y25055
X25680Y24805
X27430Y23555
X28180Y23930
X26680Y23055
X25930Y22555
X27180Y22305
X28305Y22055
X28930Y21805
X29930Y22055
X28930Y22805
X32055Y24180
X32930Y23305
X33430Y24430
X35680Y22555
X36430Y22305
X38430Y21805
X39180Y21805
X39430Y22055
X38430Y22805
X36930Y23930
X37680Y25555
X39680Y25555
X39180Y20305
X38930Y19055
X38305Y18930
X37430Y19055
X36930Y18180
X35930Y17180
X35430Y17305
X34930Y17805
X34430Y18805
X34680Y19055
X33180Y17805
X33430Y17055
X32680Y16805
X31805Y15930
X30930Y15305
X29180Y16305
X29680Y17555
X29180Y18305
X27930Y18055
X28180Y17305
X26680Y17305
X26180Y17555
X25430Y17805
X25180Y17305
X24930Y17555
X24430Y16555
X23680Y17055
X23430Y16805
X23180Y17305
X24180Y18555
X24930Y18805
X25180Y19055
X25930Y18555
X23430Y19055
X26430Y16055
X27430Y15430
X22180Y14055
X21930Y13805
X21430Y13555
X19680Y13305
X19430Y12930
X19180Y13555
X18430Y13805
X17930Y13430
X17680Y14055
X16680Y14055
X16180Y13805
X14180Y16055
X14680Y16930
X14430Y17555
X13680Y17805
X13930Y19055
X11180Y18805
X10430Y18305
X9680Y17055
X10180Y16555
X8805Y15305
X8930Y13930
X8430Y13930
X7680Y13930
X6180Y13055
X6555Y12805
X6930Y11930
X8180Y11055
X7680Y9430
X5180Y11930
X4430Y13055
X3680Y13180
X6680Y15805
X7680Y16305
X5930Y17305
X5430Y17555
X4430Y16680
X3930Y17805
X8180Y20555
X8680Y20555
X7430Y21805
X7930Y22555
X8430Y23055
X8930Y22055
X10930Y22055
X11180Y20555
X8930Y19055
X5930Y22305
X4680Y22805
X4930Y24305
X5680Y24555
X6555Y25055
X6930Y24805
X9680Y25305
X11180Y25555
X10180Y24055
X23680Y23305
X28180Y25305
X29430Y25555
X23680Y26805
X29180Y20305
X30180Y20305
X34180Y16555
X34930Y15305
X36180Y15305
X37180Y15305
X37680Y15305
X37430Y13930
X36680Y14055
X38430Y13555
X38555Y9805
X35805Y9430
X32180Y5555
X30055Y7805
X29430Y7805
X28680Y8305
X28430Y7805
X26555Y8555
X26180Y7805
X24805Y6305
X24930Y5430
X25180Y4930
X27180Y4680
X27430Y4430
X28555Y4430
X27680Y6055
X22930Y7430
X22680Y6930
X21930Y7430
X21180Y7430
X20930Y7805
X20430Y7805
X20430Y8305
X21430Y9305
X21930Y9305
X22180Y9555
X21430Y9805
X22930Y9305
X23430Y9555
X23680Y9805
X23680Y9180
X25555Y9680
X20680Y6930
X20055Y7180
X18805Y7305
X18055Y6805
X17680Y6805
X17180Y6805
X16180Y5555
X16930Y5305
X17180Y4805
X18305Y4430
X18680Y4805
X18430Y5055
X19805Y4555
X20430Y4305
X20680Y5305
X21055Y5305
X21430Y5555
X21805Y5555
X21430Y4805
X21930Y4680
X18180Y8055
X16680Y8055
X15430Y7680
X14930Y8055
X15180Y7055
X14180Y7055
X14930Y5055
X15180Y4805
X15680Y4805
X15930Y4555
X16180Y9180
X15430Y9430
X15680Y9680
X14930Y9555
X13055Y10305
X13055Y11055
X39180Y17680
T02
X11836Y9534
X33925Y7435
M30
