G75*
%MOIN*%
%OFA0B0*%
%FSLAX24Y24*%
%IPPOS*%
%LPD*%
%AMOC8*
5,1,8,0,0,1.08239X$1,22.5*
%
%ADD10C,0.0000*%
%ADD11C,0.0060*%
%ADD12C,0.0030*%
%ADD13C,0.0020*%
%ADD14C,0.0050*%
%ADD15C,0.0100*%
%ADD16C,0.0040*%
%ADD17R,0.0256X0.0551*%
D10*
X005180Y005180D02*
X010180Y005180D01*
X010180Y001180D01*
X035680Y001180D01*
X035680Y005180D01*
X040930Y005180D01*
X040930Y027180D01*
X001680Y027180D01*
X001680Y010180D01*
X005180Y010180D01*
X005180Y005180D01*
X011009Y009534D02*
X011011Y009591D01*
X011017Y009648D01*
X011027Y009704D01*
X011040Y009760D01*
X011058Y009814D01*
X011079Y009867D01*
X011104Y009918D01*
X011132Y009968D01*
X011164Y010015D01*
X011198Y010061D01*
X011236Y010103D01*
X011277Y010143D01*
X011320Y010181D01*
X011366Y010215D01*
X011414Y010245D01*
X011464Y010273D01*
X011516Y010297D01*
X011570Y010317D01*
X011624Y010333D01*
X011680Y010346D01*
X011736Y010355D01*
X011793Y010360D01*
X011850Y010361D01*
X011907Y010358D01*
X011964Y010351D01*
X012020Y010340D01*
X012075Y010326D01*
X012129Y010307D01*
X012182Y010285D01*
X012233Y010260D01*
X012282Y010230D01*
X012329Y010198D01*
X012374Y010162D01*
X012416Y010124D01*
X012455Y010082D01*
X012491Y010038D01*
X012525Y009992D01*
X012555Y009943D01*
X012581Y009893D01*
X012604Y009841D01*
X012623Y009787D01*
X012639Y009732D01*
X012651Y009676D01*
X012659Y009619D01*
X012663Y009563D01*
X012663Y009505D01*
X012659Y009449D01*
X012651Y009392D01*
X012639Y009336D01*
X012623Y009281D01*
X012604Y009227D01*
X012581Y009175D01*
X012555Y009125D01*
X012525Y009076D01*
X012491Y009030D01*
X012455Y008986D01*
X012416Y008944D01*
X012374Y008906D01*
X012329Y008870D01*
X012282Y008838D01*
X012233Y008808D01*
X012182Y008783D01*
X012129Y008761D01*
X012075Y008742D01*
X012020Y008728D01*
X011964Y008717D01*
X011907Y008710D01*
X011850Y008707D01*
X011793Y008708D01*
X011736Y008713D01*
X011680Y008722D01*
X011624Y008735D01*
X011570Y008751D01*
X011516Y008771D01*
X011464Y008795D01*
X011414Y008823D01*
X011366Y008853D01*
X011320Y008887D01*
X011277Y008925D01*
X011236Y008965D01*
X011198Y009007D01*
X011164Y009053D01*
X011132Y009100D01*
X011104Y009150D01*
X011079Y009201D01*
X011058Y009254D01*
X011040Y009308D01*
X011027Y009364D01*
X011017Y009420D01*
X011011Y009477D01*
X011009Y009534D01*
X033098Y007435D02*
X033100Y007492D01*
X033106Y007549D01*
X033116Y007605D01*
X033129Y007661D01*
X033147Y007715D01*
X033168Y007768D01*
X033193Y007819D01*
X033221Y007869D01*
X033253Y007916D01*
X033287Y007962D01*
X033325Y008004D01*
X033366Y008044D01*
X033409Y008082D01*
X033455Y008116D01*
X033503Y008146D01*
X033553Y008174D01*
X033605Y008198D01*
X033659Y008218D01*
X033713Y008234D01*
X033769Y008247D01*
X033825Y008256D01*
X033882Y008261D01*
X033939Y008262D01*
X033996Y008259D01*
X034053Y008252D01*
X034109Y008241D01*
X034164Y008227D01*
X034218Y008208D01*
X034271Y008186D01*
X034322Y008161D01*
X034371Y008131D01*
X034418Y008099D01*
X034463Y008063D01*
X034505Y008025D01*
X034544Y007983D01*
X034580Y007939D01*
X034614Y007893D01*
X034644Y007844D01*
X034670Y007794D01*
X034693Y007742D01*
X034712Y007688D01*
X034728Y007633D01*
X034740Y007577D01*
X034748Y007520D01*
X034752Y007464D01*
X034752Y007406D01*
X034748Y007350D01*
X034740Y007293D01*
X034728Y007237D01*
X034712Y007182D01*
X034693Y007128D01*
X034670Y007076D01*
X034644Y007026D01*
X034614Y006977D01*
X034580Y006931D01*
X034544Y006887D01*
X034505Y006845D01*
X034463Y006807D01*
X034418Y006771D01*
X034371Y006739D01*
X034322Y006709D01*
X034271Y006684D01*
X034218Y006662D01*
X034164Y006643D01*
X034109Y006629D01*
X034053Y006618D01*
X033996Y006611D01*
X033939Y006608D01*
X033882Y006609D01*
X033825Y006614D01*
X033769Y006623D01*
X033713Y006636D01*
X033659Y006652D01*
X033605Y006672D01*
X033553Y006696D01*
X033503Y006724D01*
X033455Y006754D01*
X033409Y006788D01*
X033366Y006826D01*
X033325Y006866D01*
X033287Y006908D01*
X033253Y006954D01*
X033221Y007001D01*
X033193Y007051D01*
X033168Y007102D01*
X033147Y007155D01*
X033129Y007209D01*
X033116Y007265D01*
X033106Y007321D01*
X033100Y007378D01*
X033098Y007435D01*
D11*
X032240Y007860D02*
X032240Y010500D01*
X032238Y010523D01*
X032233Y010546D01*
X032224Y010568D01*
X032211Y010588D01*
X032196Y010606D01*
X032178Y010621D01*
X032158Y010634D01*
X032136Y010643D01*
X032113Y010648D01*
X032090Y010650D01*
X034930Y011060D02*
X034930Y011480D01*
X034930Y011880D01*
X034930Y012300D01*
X034932Y012323D01*
X034937Y012346D01*
X034946Y012368D01*
X034959Y012388D01*
X034974Y012406D01*
X034992Y012421D01*
X035012Y012434D01*
X035034Y012443D01*
X035057Y012448D01*
X035080Y012450D01*
X034930Y011880D02*
X034957Y011878D01*
X034984Y011873D01*
X035010Y011863D01*
X035034Y011851D01*
X035056Y011835D01*
X035076Y011817D01*
X035093Y011795D01*
X035108Y011772D01*
X035118Y011747D01*
X035126Y011721D01*
X035130Y011694D01*
X035130Y011666D01*
X035126Y011639D01*
X035118Y011613D01*
X035108Y011588D01*
X035093Y011565D01*
X035076Y011543D01*
X035056Y011525D01*
X035034Y011509D01*
X035010Y011497D01*
X034984Y011487D01*
X034957Y011482D01*
X034930Y011480D01*
X034930Y011060D02*
X034932Y011037D01*
X034937Y011014D01*
X034946Y010992D01*
X034959Y010972D01*
X034974Y010954D01*
X034992Y010939D01*
X035012Y010926D01*
X035034Y010917D01*
X035057Y010912D01*
X035080Y010910D01*
X038780Y010910D02*
X038803Y010912D01*
X038826Y010917D01*
X038848Y010926D01*
X038868Y010939D01*
X038886Y010954D01*
X038901Y010972D01*
X038914Y010992D01*
X038923Y011014D01*
X038928Y011037D01*
X038930Y011060D01*
X038930Y012300D01*
X038928Y012323D01*
X038923Y012346D01*
X038914Y012368D01*
X038901Y012388D01*
X038886Y012406D01*
X038868Y012421D01*
X038848Y012434D01*
X038826Y012443D01*
X038803Y012448D01*
X038780Y012450D01*
X032240Y007860D02*
X032238Y007837D01*
X032233Y007814D01*
X032224Y007792D01*
X032211Y007772D01*
X032196Y007754D01*
X032178Y007739D01*
X032158Y007726D01*
X032136Y007717D01*
X032113Y007712D01*
X032090Y007710D01*
X032119Y005601D02*
X032333Y005387D01*
X032333Y004960D01*
X032550Y004960D02*
X032550Y005601D01*
X032870Y005601D01*
X032977Y005494D01*
X032977Y005280D01*
X032870Y005174D01*
X032550Y005174D01*
X032333Y005280D02*
X031905Y005280D01*
X031905Y005387D02*
X032119Y005601D01*
X031905Y005387D02*
X031905Y004960D01*
X031688Y004960D02*
X031688Y005601D01*
X031474Y005387D01*
X031261Y005601D01*
X031261Y004960D01*
X031043Y005280D02*
X030616Y005280D01*
X030399Y005280D02*
X029972Y005280D01*
X029972Y005387D02*
X030185Y005601D01*
X030399Y005387D01*
X030399Y004960D01*
X029972Y004960D02*
X029972Y005387D01*
X029754Y005280D02*
X029541Y005280D01*
X029754Y005280D02*
X029754Y005067D01*
X029648Y004960D01*
X029434Y004960D01*
X029327Y005067D01*
X029327Y005494D01*
X029434Y005601D01*
X029648Y005601D01*
X029754Y005494D01*
X029110Y005601D02*
X028683Y005601D01*
X028683Y004960D01*
X029110Y004960D01*
X028896Y005280D02*
X028683Y005280D01*
X028465Y004960D02*
X028465Y005601D01*
X028252Y005387D01*
X028038Y005601D01*
X028038Y004960D01*
X027176Y004960D02*
X026749Y005601D01*
X026532Y005494D02*
X026425Y005601D01*
X026211Y005601D01*
X026105Y005494D01*
X026105Y005387D01*
X026211Y005280D01*
X026425Y005280D01*
X026532Y005174D01*
X026532Y005067D01*
X026425Y004960D01*
X026211Y004960D01*
X026105Y005067D01*
X025887Y004960D02*
X025887Y005601D01*
X025674Y005387D01*
X025460Y005601D01*
X025460Y004960D01*
X026749Y004960D02*
X027176Y005601D01*
X024680Y006810D02*
X024680Y008050D01*
X024678Y008073D01*
X024673Y008096D01*
X024664Y008118D01*
X024651Y008138D01*
X024636Y008156D01*
X024618Y008171D01*
X024598Y008184D01*
X024576Y008193D01*
X024553Y008198D01*
X024530Y008200D01*
X024680Y006810D02*
X024678Y006787D01*
X024673Y006764D01*
X024664Y006742D01*
X024651Y006722D01*
X024636Y006704D01*
X024618Y006689D01*
X024598Y006676D01*
X024576Y006667D01*
X024553Y006662D01*
X024530Y006660D01*
X027120Y007860D02*
X027120Y008680D01*
X027120Y009680D01*
X027120Y010500D01*
X027122Y010523D01*
X027127Y010546D01*
X027136Y010568D01*
X027149Y010588D01*
X027164Y010606D01*
X027182Y010621D01*
X027202Y010634D01*
X027224Y010643D01*
X027247Y010648D01*
X027270Y010650D01*
X027120Y009680D02*
X027164Y009678D01*
X027207Y009672D01*
X027249Y009663D01*
X027291Y009650D01*
X027331Y009633D01*
X027370Y009613D01*
X027407Y009590D01*
X027441Y009563D01*
X027474Y009534D01*
X027503Y009501D01*
X027530Y009467D01*
X027553Y009430D01*
X027573Y009391D01*
X027590Y009351D01*
X027603Y009309D01*
X027612Y009267D01*
X027618Y009224D01*
X027620Y009180D01*
X027618Y009136D01*
X027612Y009093D01*
X027603Y009051D01*
X027590Y009009D01*
X027573Y008969D01*
X027553Y008930D01*
X027530Y008893D01*
X027503Y008859D01*
X027474Y008826D01*
X027441Y008797D01*
X027407Y008770D01*
X027370Y008747D01*
X027331Y008727D01*
X027291Y008710D01*
X027249Y008697D01*
X027207Y008688D01*
X027164Y008682D01*
X027120Y008680D01*
X027120Y007860D02*
X027122Y007837D01*
X027127Y007814D01*
X027136Y007792D01*
X027149Y007772D01*
X027164Y007754D01*
X027182Y007739D01*
X027202Y007726D01*
X027224Y007717D01*
X027247Y007712D01*
X027270Y007710D01*
X024680Y011060D02*
X024680Y012300D01*
X024678Y012323D01*
X024673Y012346D01*
X024664Y012368D01*
X024651Y012388D01*
X024636Y012406D01*
X024618Y012421D01*
X024598Y012434D01*
X024576Y012443D01*
X024553Y012448D01*
X024530Y012450D01*
X024680Y011060D02*
X024678Y011037D01*
X024673Y011014D01*
X024664Y010992D01*
X024651Y010972D01*
X024636Y010954D01*
X024618Y010939D01*
X024598Y010926D01*
X024576Y010917D01*
X024553Y010912D01*
X024530Y010910D01*
X020830Y010910D02*
X020807Y010912D01*
X020784Y010917D01*
X020762Y010926D01*
X020742Y010939D01*
X020724Y010954D01*
X020709Y010972D01*
X020696Y010992D01*
X020687Y011014D01*
X020682Y011037D01*
X020680Y011060D01*
X020680Y011480D01*
X020680Y011880D01*
X020680Y012300D01*
X020682Y012323D01*
X020687Y012346D01*
X020696Y012368D01*
X020709Y012388D01*
X020724Y012406D01*
X020742Y012421D01*
X020762Y012434D01*
X020784Y012443D01*
X020807Y012448D01*
X020830Y012450D01*
X020680Y011880D02*
X020707Y011878D01*
X020734Y011873D01*
X020760Y011863D01*
X020784Y011851D01*
X020806Y011835D01*
X020826Y011817D01*
X020843Y011795D01*
X020858Y011772D01*
X020868Y011747D01*
X020876Y011721D01*
X020880Y011694D01*
X020880Y011666D01*
X020876Y011639D01*
X020868Y011613D01*
X020858Y011588D01*
X020843Y011565D01*
X020826Y011543D01*
X020806Y011525D01*
X020784Y011509D01*
X020760Y011497D01*
X020734Y011487D01*
X020707Y011482D01*
X020680Y011480D01*
X018930Y011060D02*
X018930Y012300D01*
X018928Y012323D01*
X018923Y012346D01*
X018914Y012368D01*
X018901Y012388D01*
X018886Y012406D01*
X018868Y012421D01*
X018848Y012434D01*
X018826Y012443D01*
X018803Y012448D01*
X018780Y012450D01*
X018930Y011060D02*
X018928Y011037D01*
X018923Y011014D01*
X018914Y010992D01*
X018901Y010972D01*
X018886Y010954D01*
X018868Y010939D01*
X018848Y010926D01*
X018826Y010917D01*
X018803Y010912D01*
X018780Y010910D01*
X015080Y010910D02*
X015057Y010912D01*
X015034Y010917D01*
X015012Y010926D01*
X014992Y010939D01*
X014974Y010954D01*
X014959Y010972D01*
X014946Y010992D01*
X014937Y011014D01*
X014932Y011037D01*
X014930Y011060D01*
X014930Y011480D01*
X014930Y011880D01*
X014930Y012300D01*
X014932Y012323D01*
X014937Y012346D01*
X014946Y012368D01*
X014959Y012388D01*
X014974Y012406D01*
X014992Y012421D01*
X015012Y012434D01*
X015034Y012443D01*
X015057Y012448D01*
X015080Y012450D01*
X014930Y011880D02*
X014957Y011878D01*
X014984Y011873D01*
X015010Y011863D01*
X015034Y011851D01*
X015056Y011835D01*
X015076Y011817D01*
X015093Y011795D01*
X015108Y011772D01*
X015118Y011747D01*
X015126Y011721D01*
X015130Y011694D01*
X015130Y011666D01*
X015126Y011639D01*
X015118Y011613D01*
X015108Y011588D01*
X015093Y011565D01*
X015076Y011543D01*
X015056Y011525D01*
X015034Y011509D01*
X015010Y011497D01*
X014984Y011487D01*
X014957Y011482D01*
X014930Y011480D01*
X010180Y011060D02*
X010180Y012300D01*
X010178Y012323D01*
X010173Y012346D01*
X010164Y012368D01*
X010151Y012388D01*
X010136Y012406D01*
X010118Y012421D01*
X010098Y012434D01*
X010076Y012443D01*
X010053Y012448D01*
X010030Y012450D01*
X010180Y011060D02*
X010178Y011037D01*
X010173Y011014D01*
X010164Y010992D01*
X010151Y010972D01*
X010136Y010954D01*
X010118Y010939D01*
X010098Y010926D01*
X010076Y010917D01*
X010053Y010912D01*
X010030Y010910D01*
X006830Y010910D02*
X006807Y010912D01*
X006784Y010917D01*
X006762Y010926D01*
X006742Y010939D01*
X006724Y010954D01*
X006709Y010972D01*
X006696Y010992D01*
X006687Y011014D01*
X006682Y011037D01*
X006680Y011060D01*
X006680Y011480D01*
X006680Y011880D01*
X006680Y012300D01*
X006682Y012323D01*
X006687Y012346D01*
X006696Y012368D01*
X006709Y012388D01*
X006724Y012406D01*
X006742Y012421D01*
X006762Y012434D01*
X006784Y012443D01*
X006807Y012448D01*
X006830Y012450D01*
X006680Y011880D02*
X006707Y011878D01*
X006734Y011873D01*
X006760Y011863D01*
X006784Y011851D01*
X006806Y011835D01*
X006826Y011817D01*
X006843Y011795D01*
X006858Y011772D01*
X006868Y011747D01*
X006876Y011721D01*
X006880Y011694D01*
X006880Y011666D01*
X006876Y011639D01*
X006868Y011613D01*
X006858Y011588D01*
X006843Y011565D01*
X006826Y011543D01*
X006806Y011525D01*
X006784Y011509D01*
X006760Y011497D01*
X006734Y011487D01*
X006707Y011482D01*
X006680Y011480D01*
X014680Y008050D02*
X014680Y007630D01*
X014680Y007230D01*
X014680Y006810D01*
X014682Y006787D01*
X014687Y006764D01*
X014696Y006742D01*
X014709Y006722D01*
X014724Y006704D01*
X014742Y006689D01*
X014762Y006676D01*
X014784Y006667D01*
X014807Y006662D01*
X014830Y006660D01*
X014680Y007230D02*
X014707Y007232D01*
X014734Y007237D01*
X014760Y007247D01*
X014784Y007259D01*
X014806Y007275D01*
X014826Y007293D01*
X014843Y007315D01*
X014858Y007338D01*
X014868Y007363D01*
X014876Y007389D01*
X014880Y007416D01*
X014880Y007444D01*
X014876Y007471D01*
X014868Y007497D01*
X014858Y007522D01*
X014843Y007545D01*
X014826Y007567D01*
X014806Y007585D01*
X014784Y007601D01*
X014760Y007613D01*
X014734Y007623D01*
X014707Y007628D01*
X014680Y007630D01*
X014680Y008050D02*
X014682Y008073D01*
X014687Y008096D01*
X014696Y008118D01*
X014709Y008138D01*
X014724Y008156D01*
X014742Y008171D01*
X014762Y008184D01*
X014784Y008193D01*
X014807Y008198D01*
X014830Y008200D01*
X018530Y008200D02*
X018553Y008198D01*
X018576Y008193D01*
X018598Y008184D01*
X018618Y008171D01*
X018636Y008156D01*
X018651Y008138D01*
X018664Y008118D01*
X018673Y008096D01*
X018678Y008073D01*
X018680Y008050D01*
X018680Y006810D01*
X018678Y006787D01*
X018673Y006764D01*
X018664Y006742D01*
X018651Y006722D01*
X018636Y006704D01*
X018618Y006689D01*
X018598Y006676D01*
X018576Y006667D01*
X018553Y006662D01*
X018530Y006660D01*
X020680Y006810D02*
X020680Y007230D01*
X020680Y007630D01*
X020680Y008050D01*
X020682Y008073D01*
X020687Y008096D01*
X020696Y008118D01*
X020709Y008138D01*
X020724Y008156D01*
X020742Y008171D01*
X020762Y008184D01*
X020784Y008193D01*
X020807Y008198D01*
X020830Y008200D01*
X020680Y007630D02*
X020707Y007628D01*
X020734Y007623D01*
X020760Y007613D01*
X020784Y007601D01*
X020806Y007585D01*
X020826Y007567D01*
X020843Y007545D01*
X020858Y007522D01*
X020868Y007497D01*
X020876Y007471D01*
X020880Y007444D01*
X020880Y007416D01*
X020876Y007389D01*
X020868Y007363D01*
X020858Y007338D01*
X020843Y007315D01*
X020826Y007293D01*
X020806Y007275D01*
X020784Y007259D01*
X020760Y007247D01*
X020734Y007237D01*
X020707Y007232D01*
X020680Y007230D01*
X020680Y006810D02*
X020682Y006787D01*
X020687Y006764D01*
X020696Y006742D01*
X020709Y006722D01*
X020724Y006704D01*
X020742Y006689D01*
X020762Y006676D01*
X020784Y006667D01*
X020807Y006662D01*
X020830Y006660D01*
X033195Y005601D02*
X033195Y004960D01*
X033195Y005174D02*
X033515Y005174D01*
X033622Y005280D01*
X033622Y005494D01*
X033515Y005601D01*
X033195Y005601D01*
X033839Y005601D02*
X033839Y004960D01*
X034266Y004960D01*
X034484Y004960D02*
X034484Y005601D01*
X034804Y005601D01*
X034911Y005494D01*
X034911Y005280D01*
X034804Y005174D01*
X034484Y005174D01*
X034697Y005174D02*
X034911Y004960D01*
X034266Y005601D02*
X033839Y005601D01*
X033839Y005280D02*
X034053Y005280D01*
D12*
X040045Y006007D02*
X040106Y005945D01*
X040168Y005945D01*
X040230Y006007D01*
X040230Y006130D01*
X040292Y006192D01*
X040353Y006192D01*
X040415Y006130D01*
X040415Y006007D01*
X040353Y005945D01*
X040292Y005945D01*
X040230Y006007D01*
X040230Y006130D02*
X040168Y006192D01*
X040106Y006192D01*
X040045Y006130D01*
X040045Y006007D01*
X040045Y006313D02*
X040415Y006313D01*
X040415Y006498D01*
X040353Y006560D01*
X040230Y006560D01*
X040168Y006498D01*
X040168Y006313D01*
X040168Y006682D02*
X040168Y006743D01*
X040415Y006743D01*
X040415Y006682D02*
X040415Y006805D01*
X040353Y006989D02*
X040106Y006989D01*
X040168Y006927D02*
X040168Y007051D01*
X040230Y007173D02*
X040168Y007234D01*
X040168Y007420D01*
X040230Y007541D02*
X040230Y007788D01*
X040230Y007909D02*
X040168Y007971D01*
X040168Y008095D01*
X040230Y008156D01*
X040292Y008156D01*
X040292Y007909D01*
X040353Y007909D02*
X040230Y007909D01*
X040353Y007909D02*
X040415Y007971D01*
X040415Y008095D01*
X040415Y008401D02*
X040168Y008278D01*
X040168Y008525D02*
X040415Y008401D01*
X040353Y008646D02*
X040230Y008646D01*
X040168Y008708D01*
X040168Y008831D01*
X040230Y008893D01*
X040292Y008893D01*
X040292Y008646D01*
X040353Y008646D02*
X040415Y008708D01*
X040415Y008831D01*
X040415Y009014D02*
X040168Y009014D01*
X040292Y009014D02*
X040168Y009138D01*
X040168Y009199D01*
X040106Y009690D02*
X040045Y009751D01*
X040045Y009875D01*
X040106Y009936D01*
X040168Y009936D01*
X040415Y009690D01*
X040415Y009936D01*
X040353Y010058D02*
X040106Y010305D01*
X040353Y010305D01*
X040415Y010243D01*
X040415Y010120D01*
X040353Y010058D01*
X040106Y010058D01*
X040045Y010120D01*
X040045Y010243D01*
X040106Y010305D01*
X040168Y010426D02*
X040045Y010550D01*
X040415Y010550D01*
X040415Y010673D02*
X040415Y010426D01*
X040353Y010794D02*
X040230Y010794D01*
X040230Y010980D01*
X040292Y011041D01*
X040353Y011041D01*
X040415Y010980D01*
X040415Y010856D01*
X040353Y010794D01*
X040230Y010794D02*
X040106Y010918D01*
X040045Y011041D01*
X040045Y007726D02*
X040230Y007541D01*
X040353Y007420D02*
X040292Y007358D01*
X040292Y007234D01*
X040230Y007173D01*
X040415Y007173D02*
X040415Y007358D01*
X040353Y007420D01*
X040415Y007726D02*
X040045Y007726D01*
X040415Y007051D02*
X040353Y006989D01*
X040045Y006743D02*
X039983Y006743D01*
X033321Y011863D02*
X033321Y011986D01*
X033259Y012048D01*
X033321Y012170D02*
X033321Y012416D01*
X033321Y012293D02*
X032950Y012293D01*
X033074Y012170D01*
X033012Y012048D02*
X032950Y011986D01*
X032950Y011863D01*
X033012Y011801D01*
X033259Y011801D01*
X033321Y011863D01*
X033259Y012538D02*
X033321Y012600D01*
X033321Y012723D01*
X033259Y012785D01*
X033135Y012785D01*
X033074Y012723D01*
X033074Y012661D01*
X033135Y012538D01*
X032950Y012538D01*
X032950Y012785D01*
X025821Y010605D02*
X025821Y010481D01*
X025759Y010420D01*
X025759Y010298D02*
X025821Y010236D01*
X025821Y010113D01*
X025759Y010051D01*
X025512Y010051D01*
X025450Y010113D01*
X025450Y010236D01*
X025512Y010298D01*
X025512Y010420D02*
X025574Y010420D01*
X025635Y010481D01*
X025635Y010666D01*
X025512Y010666D02*
X025450Y010605D01*
X025450Y010481D01*
X025512Y010420D01*
X025512Y010666D02*
X025759Y010666D01*
X025821Y010605D01*
X019571Y011863D02*
X019571Y011986D01*
X019509Y012048D01*
X019571Y012170D02*
X019571Y012416D01*
X019571Y012293D02*
X019200Y012293D01*
X019324Y012170D01*
X019262Y012048D02*
X019200Y011986D01*
X019200Y011863D01*
X019262Y011801D01*
X019509Y011801D01*
X019571Y011863D01*
X019509Y012538D02*
X019262Y012538D01*
X019200Y012600D01*
X019200Y012723D01*
X019262Y012785D01*
X019509Y012538D01*
X019571Y012600D01*
X019571Y012723D01*
X019509Y012785D01*
X019262Y012785D01*
X013571Y012788D02*
X013571Y013035D01*
X013571Y012911D02*
X013200Y012911D01*
X013324Y012788D01*
X013200Y012543D02*
X013571Y012543D01*
X013571Y012420D02*
X013571Y012666D01*
X013324Y012420D02*
X013200Y012543D01*
X013262Y012298D02*
X013200Y012236D01*
X013200Y012113D01*
X013262Y012051D01*
X013509Y012051D01*
X013571Y012113D01*
X013571Y012236D01*
X013509Y012298D01*
X013259Y008535D02*
X013321Y008473D01*
X013321Y008350D01*
X013259Y008288D01*
X013321Y008166D02*
X013321Y007920D01*
X013321Y008043D02*
X012950Y008043D01*
X013074Y007920D01*
X013012Y007798D02*
X012950Y007736D01*
X012950Y007613D01*
X013012Y007551D01*
X013259Y007551D01*
X013321Y007613D01*
X013321Y007736D01*
X013259Y007798D01*
X013012Y008288D02*
X012950Y008350D01*
X012950Y008473D01*
X013012Y008535D01*
X013074Y008535D01*
X013135Y008473D01*
X013197Y008535D01*
X013259Y008535D01*
X013135Y008473D02*
X013135Y008411D01*
X019200Y008293D02*
X019571Y008293D01*
X019571Y008170D02*
X019571Y008416D01*
X019571Y008538D02*
X019324Y008785D01*
X019262Y008785D01*
X019200Y008723D01*
X019200Y008600D01*
X019262Y008538D01*
X019200Y008293D02*
X019324Y008170D01*
X019262Y008048D02*
X019200Y007986D01*
X019200Y007863D01*
X019262Y007801D01*
X019509Y007801D01*
X019571Y007863D01*
X019571Y007986D01*
X019509Y008048D01*
X019571Y008538D02*
X019571Y008785D01*
X005815Y008893D02*
X005815Y008954D01*
X005753Y008954D01*
X005753Y008893D01*
X005815Y008893D01*
X005815Y009077D02*
X005568Y009324D01*
X005506Y009324D01*
X005445Y009262D01*
X005445Y009138D01*
X005506Y009077D01*
X005815Y009077D02*
X005815Y009324D01*
X005568Y008771D02*
X005815Y008648D01*
X005568Y008524D01*
X005630Y008403D02*
X005568Y008341D01*
X005568Y008218D01*
X005630Y008156D01*
X005753Y008156D01*
X005815Y008218D01*
X005815Y008341D01*
X005692Y008403D02*
X005692Y008156D01*
X005630Y008034D02*
X005692Y007973D01*
X005692Y007788D01*
X005815Y007788D02*
X005445Y007788D01*
X005445Y007973D01*
X005506Y008034D01*
X005630Y008034D01*
X005692Y007911D02*
X005815Y008034D01*
X005692Y008403D02*
X005630Y008403D01*
X005568Y007298D02*
X005568Y007113D01*
X005630Y007051D01*
X005753Y007051D01*
X005815Y007113D01*
X005815Y007298D01*
X005445Y007298D01*
X005568Y006929D02*
X005568Y006867D01*
X005692Y006744D01*
X005692Y006623D02*
X005692Y006437D01*
X005753Y006376D01*
X005815Y006437D01*
X005815Y006623D01*
X005630Y006623D01*
X005568Y006561D01*
X005568Y006437D01*
X005630Y006254D02*
X005568Y006193D01*
X005568Y006069D01*
X005630Y006007D01*
X005753Y006007D01*
X005815Y006069D01*
X005815Y006193D01*
X005753Y006254D01*
X005630Y006254D01*
X005568Y006744D02*
X005815Y006744D01*
X005753Y005886D02*
X005815Y005824D01*
X005815Y005639D01*
X005445Y005639D01*
X005445Y005824D01*
X005506Y005886D01*
X005568Y005886D01*
X005630Y005824D01*
X005630Y005639D01*
X005630Y005824D02*
X005692Y005886D01*
X005753Y005886D01*
X005259Y012051D02*
X005012Y012051D01*
X004950Y012113D01*
X004950Y012236D01*
X005012Y012298D01*
X005074Y012420D02*
X004950Y012543D01*
X005321Y012543D01*
X005321Y012420D02*
X005321Y012666D01*
X005135Y012788D02*
X005135Y013035D01*
X004950Y012973D02*
X005135Y012788D01*
X004950Y012973D02*
X005321Y012973D01*
X005259Y012298D02*
X005321Y012236D01*
X005321Y012113D01*
X005259Y012051D01*
X002259Y018801D02*
X002012Y018801D01*
X001950Y018863D01*
X001950Y018986D01*
X002012Y019048D01*
X002135Y019170D02*
X002135Y019416D01*
X001950Y019355D02*
X002135Y019170D01*
X002259Y019048D02*
X002321Y018986D01*
X002321Y018863D01*
X002259Y018801D01*
X002321Y019355D02*
X001950Y019355D01*
X002512Y025301D02*
X002759Y025301D01*
X002821Y025363D01*
X002821Y025486D01*
X002759Y025548D01*
X002759Y025670D02*
X002697Y025670D01*
X002635Y025731D01*
X002635Y025855D01*
X002697Y025916D01*
X002759Y025916D01*
X002821Y025855D01*
X002821Y025731D01*
X002759Y025670D01*
X002635Y025731D02*
X002574Y025670D01*
X002512Y025670D01*
X002450Y025731D01*
X002450Y025855D01*
X002512Y025916D01*
X002574Y025916D01*
X002635Y025855D01*
X002512Y025548D02*
X002450Y025486D01*
X002450Y025363D01*
X002512Y025301D01*
X011450Y019355D02*
X011512Y019416D01*
X011574Y019416D01*
X011635Y019355D01*
X011697Y019416D01*
X011759Y019416D01*
X011821Y019355D01*
X011821Y019231D01*
X011759Y019170D01*
X011759Y019048D02*
X011821Y018986D01*
X011821Y018863D01*
X011759Y018801D01*
X011512Y018801D01*
X011450Y018863D01*
X011450Y018986D01*
X011512Y019048D01*
X011512Y019170D02*
X011450Y019231D01*
X011450Y019355D01*
X011635Y019355D02*
X011635Y019293D01*
X012012Y025301D02*
X011950Y025363D01*
X011950Y025486D01*
X012012Y025548D01*
X011950Y025670D02*
X011950Y025916D01*
X012012Y025916D01*
X012259Y025670D01*
X012321Y025670D01*
X012259Y025548D02*
X012321Y025486D01*
X012321Y025363D01*
X012259Y025301D01*
X012012Y025301D01*
X020950Y019355D02*
X020950Y019231D01*
X021012Y019170D01*
X021012Y019048D02*
X020950Y018986D01*
X020950Y018863D01*
X021012Y018801D01*
X021259Y018801D01*
X021321Y018863D01*
X021321Y018986D01*
X021259Y019048D01*
X021321Y019170D02*
X021074Y019416D01*
X021012Y019416D01*
X020950Y019355D01*
X021321Y019416D02*
X021321Y019170D01*
X021512Y025301D02*
X021759Y025301D01*
X021821Y025363D01*
X021821Y025486D01*
X021759Y025548D01*
X021759Y025670D02*
X021821Y025731D01*
X021821Y025855D01*
X021759Y025916D01*
X021697Y025916D01*
X021635Y025855D01*
X021635Y025670D01*
X021759Y025670D01*
X021635Y025670D02*
X021512Y025793D01*
X021450Y025916D01*
X021512Y025548D02*
X021450Y025486D01*
X021450Y025363D01*
X021512Y025301D01*
X030450Y019293D02*
X030821Y019293D01*
X030821Y019170D02*
X030821Y019416D01*
X030574Y019170D02*
X030450Y019293D01*
X030512Y019048D02*
X030450Y018986D01*
X030450Y018863D01*
X030512Y018801D01*
X030759Y018801D01*
X030821Y018863D01*
X030821Y018986D01*
X030759Y019048D01*
X031012Y025301D02*
X031259Y025301D01*
X031321Y025363D01*
X031321Y025486D01*
X031259Y025548D01*
X031259Y025670D02*
X031321Y025731D01*
X031321Y025855D01*
X031259Y025916D01*
X031135Y025916D01*
X031074Y025855D01*
X031074Y025793D01*
X031135Y025670D01*
X030950Y025670D01*
X030950Y025916D01*
X031012Y025548D02*
X030950Y025486D01*
X030950Y025363D01*
X031012Y025301D01*
D13*
X034930Y011050D02*
X038930Y011050D01*
X032230Y007850D02*
X027130Y007850D01*
X024680Y006800D02*
X020680Y006800D01*
X018680Y006800D02*
X014680Y006800D01*
X014930Y011050D02*
X018930Y011050D01*
X020680Y011050D02*
X024680Y011050D01*
X010180Y011050D02*
X006680Y011050D01*
D14*
X006505Y011030D02*
X006055Y011030D01*
X006055Y010955D02*
X006055Y011105D01*
X006130Y011262D02*
X006430Y011262D01*
X006505Y011337D01*
X006505Y011487D01*
X006430Y011562D01*
X006430Y011722D02*
X006505Y011722D01*
X006430Y011722D02*
X006130Y012023D01*
X006055Y012023D01*
X006055Y011722D01*
X006130Y011562D02*
X006055Y011487D01*
X006055Y011337D01*
X006130Y011262D01*
X006505Y011105D02*
X006505Y010955D01*
X014055Y007622D02*
X014505Y007622D01*
X014505Y007472D02*
X014505Y007773D01*
X014205Y007472D02*
X014055Y007622D01*
X014130Y007312D02*
X014055Y007237D01*
X014055Y007087D01*
X014130Y007012D01*
X014430Y007012D01*
X014505Y007087D01*
X014505Y007237D01*
X014430Y007312D01*
X014505Y006855D02*
X014505Y006705D01*
X014505Y006780D02*
X014055Y006780D01*
X014055Y006705D02*
X014055Y006855D01*
X014305Y010955D02*
X014305Y011105D01*
X014305Y011030D02*
X014755Y011030D01*
X014755Y010955D02*
X014755Y011105D01*
X014680Y011262D02*
X014755Y011337D01*
X014755Y011487D01*
X014680Y011562D01*
X014755Y011722D02*
X014455Y012023D01*
X014380Y012023D01*
X014305Y011948D01*
X014305Y011797D01*
X014380Y011722D01*
X014380Y011562D02*
X014305Y011487D01*
X014305Y011337D01*
X014380Y011262D01*
X014680Y011262D01*
X014755Y011722D02*
X014755Y012023D01*
X020055Y011948D02*
X020280Y011722D01*
X020280Y012023D01*
X020505Y011948D02*
X020055Y011948D01*
X020130Y011562D02*
X020055Y011487D01*
X020055Y011337D01*
X020130Y011262D01*
X020430Y011262D01*
X020505Y011337D01*
X020505Y011487D01*
X020430Y011562D01*
X020505Y011105D02*
X020505Y010955D01*
X020505Y011030D02*
X020055Y011030D01*
X020055Y010955D02*
X020055Y011105D01*
X020055Y007773D02*
X020130Y007622D01*
X020280Y007472D01*
X020280Y007698D01*
X020355Y007773D01*
X020430Y007773D01*
X020505Y007698D01*
X020505Y007547D01*
X020430Y007472D01*
X020280Y007472D01*
X020430Y007312D02*
X020505Y007237D01*
X020505Y007087D01*
X020430Y007012D01*
X020130Y007012D01*
X020055Y007087D01*
X020055Y007237D01*
X020130Y007312D01*
X020055Y006855D02*
X020055Y006705D01*
X020055Y006780D02*
X020505Y006780D01*
X020505Y006705D02*
X020505Y006855D01*
X026505Y007955D02*
X026505Y008105D01*
X026505Y008030D02*
X026955Y008030D01*
X026955Y007955D02*
X026955Y008105D01*
X026880Y008262D02*
X026955Y008337D01*
X026955Y008487D01*
X026880Y008562D01*
X026880Y008722D02*
X026955Y008797D01*
X026955Y008948D01*
X026880Y009023D01*
X026805Y009023D01*
X026730Y008948D01*
X026730Y008872D01*
X026730Y008948D02*
X026655Y009023D01*
X026580Y009023D01*
X026505Y008948D01*
X026505Y008797D01*
X026580Y008722D01*
X026580Y008562D02*
X026505Y008487D01*
X026505Y008337D01*
X026580Y008262D01*
X026880Y008262D01*
X034305Y010955D02*
X034305Y011105D01*
X034305Y011030D02*
X034755Y011030D01*
X034755Y010955D02*
X034755Y011105D01*
X034680Y011262D02*
X034755Y011337D01*
X034755Y011487D01*
X034680Y011562D01*
X034680Y011722D02*
X034755Y011797D01*
X034755Y011948D01*
X034680Y012023D01*
X034530Y012023D01*
X034455Y011948D01*
X034455Y011872D01*
X034530Y011722D01*
X034305Y011722D01*
X034305Y012023D01*
X034380Y011562D02*
X034305Y011487D01*
X034305Y011337D01*
X034380Y011262D01*
X034680Y011262D01*
D15*
X031930Y015680D02*
X031932Y015711D01*
X031938Y015742D01*
X031948Y015772D01*
X031961Y015800D01*
X031978Y015827D01*
X031998Y015851D01*
X032021Y015873D01*
X032046Y015891D01*
X032074Y015906D01*
X032103Y015918D01*
X032133Y015926D01*
X032164Y015930D01*
X032196Y015930D01*
X032227Y015926D01*
X032257Y015918D01*
X032286Y015906D01*
X032314Y015891D01*
X032339Y015873D01*
X032362Y015851D01*
X032382Y015827D01*
X032399Y015800D01*
X032412Y015772D01*
X032422Y015742D01*
X032428Y015711D01*
X032430Y015680D01*
X032428Y015649D01*
X032422Y015618D01*
X032412Y015588D01*
X032399Y015560D01*
X032382Y015533D01*
X032362Y015509D01*
X032339Y015487D01*
X032314Y015469D01*
X032286Y015454D01*
X032257Y015442D01*
X032227Y015434D01*
X032196Y015430D01*
X032164Y015430D01*
X032133Y015434D01*
X032103Y015442D01*
X032074Y015454D01*
X032046Y015469D01*
X032021Y015487D01*
X031998Y015509D01*
X031978Y015533D01*
X031961Y015560D01*
X031948Y015588D01*
X031938Y015618D01*
X031932Y015649D01*
X031930Y015680D01*
X022430Y015680D02*
X022432Y015711D01*
X022438Y015742D01*
X022448Y015772D01*
X022461Y015800D01*
X022478Y015827D01*
X022498Y015851D01*
X022521Y015873D01*
X022546Y015891D01*
X022574Y015906D01*
X022603Y015918D01*
X022633Y015926D01*
X022664Y015930D01*
X022696Y015930D01*
X022727Y015926D01*
X022757Y015918D01*
X022786Y015906D01*
X022814Y015891D01*
X022839Y015873D01*
X022862Y015851D01*
X022882Y015827D01*
X022899Y015800D01*
X022912Y015772D01*
X022922Y015742D01*
X022928Y015711D01*
X022930Y015680D01*
X022928Y015649D01*
X022922Y015618D01*
X022912Y015588D01*
X022899Y015560D01*
X022882Y015533D01*
X022862Y015509D01*
X022839Y015487D01*
X022814Y015469D01*
X022786Y015454D01*
X022757Y015442D01*
X022727Y015434D01*
X022696Y015430D01*
X022664Y015430D01*
X022633Y015434D01*
X022603Y015442D01*
X022574Y015454D01*
X022546Y015469D01*
X022521Y015487D01*
X022498Y015509D01*
X022478Y015533D01*
X022461Y015560D01*
X022448Y015588D01*
X022438Y015618D01*
X022432Y015649D01*
X022430Y015680D01*
X012930Y015680D02*
X012932Y015711D01*
X012938Y015742D01*
X012948Y015772D01*
X012961Y015800D01*
X012978Y015827D01*
X012998Y015851D01*
X013021Y015873D01*
X013046Y015891D01*
X013074Y015906D01*
X013103Y015918D01*
X013133Y015926D01*
X013164Y015930D01*
X013196Y015930D01*
X013227Y015926D01*
X013257Y015918D01*
X013286Y015906D01*
X013314Y015891D01*
X013339Y015873D01*
X013362Y015851D01*
X013382Y015827D01*
X013399Y015800D01*
X013412Y015772D01*
X013422Y015742D01*
X013428Y015711D01*
X013430Y015680D01*
X013428Y015649D01*
X013422Y015618D01*
X013412Y015588D01*
X013399Y015560D01*
X013382Y015533D01*
X013362Y015509D01*
X013339Y015487D01*
X013314Y015469D01*
X013286Y015454D01*
X013257Y015442D01*
X013227Y015434D01*
X013196Y015430D01*
X013164Y015430D01*
X013133Y015434D01*
X013103Y015442D01*
X013074Y015454D01*
X013046Y015469D01*
X013021Y015487D01*
X012998Y015509D01*
X012978Y015533D01*
X012961Y015560D01*
X012948Y015588D01*
X012938Y015618D01*
X012932Y015649D01*
X012930Y015680D01*
X003430Y015680D02*
X003432Y015711D01*
X003438Y015742D01*
X003448Y015772D01*
X003461Y015800D01*
X003478Y015827D01*
X003498Y015851D01*
X003521Y015873D01*
X003546Y015891D01*
X003574Y015906D01*
X003603Y015918D01*
X003633Y015926D01*
X003664Y015930D01*
X003696Y015930D01*
X003727Y015926D01*
X003757Y015918D01*
X003786Y015906D01*
X003814Y015891D01*
X003839Y015873D01*
X003862Y015851D01*
X003882Y015827D01*
X003899Y015800D01*
X003912Y015772D01*
X003922Y015742D01*
X003928Y015711D01*
X003930Y015680D01*
X003928Y015649D01*
X003922Y015618D01*
X003912Y015588D01*
X003899Y015560D01*
X003882Y015533D01*
X003862Y015509D01*
X003839Y015487D01*
X003814Y015469D01*
X003786Y015454D01*
X003757Y015442D01*
X003727Y015434D01*
X003696Y015430D01*
X003664Y015430D01*
X003633Y015434D01*
X003603Y015442D01*
X003574Y015454D01*
X003546Y015469D01*
X003521Y015487D01*
X003498Y015509D01*
X003478Y015533D01*
X003461Y015560D01*
X003448Y015588D01*
X003438Y015618D01*
X003432Y015649D01*
X003430Y015680D01*
X003930Y022180D02*
X003932Y022211D01*
X003938Y022242D01*
X003948Y022272D01*
X003961Y022300D01*
X003978Y022327D01*
X003998Y022351D01*
X004021Y022373D01*
X004046Y022391D01*
X004074Y022406D01*
X004103Y022418D01*
X004133Y022426D01*
X004164Y022430D01*
X004196Y022430D01*
X004227Y022426D01*
X004257Y022418D01*
X004286Y022406D01*
X004314Y022391D01*
X004339Y022373D01*
X004362Y022351D01*
X004382Y022327D01*
X004399Y022300D01*
X004412Y022272D01*
X004422Y022242D01*
X004428Y022211D01*
X004430Y022180D01*
X004428Y022149D01*
X004422Y022118D01*
X004412Y022088D01*
X004399Y022060D01*
X004382Y022033D01*
X004362Y022009D01*
X004339Y021987D01*
X004314Y021969D01*
X004286Y021954D01*
X004257Y021942D01*
X004227Y021934D01*
X004196Y021930D01*
X004164Y021930D01*
X004133Y021934D01*
X004103Y021942D01*
X004074Y021954D01*
X004046Y021969D01*
X004021Y021987D01*
X003998Y022009D01*
X003978Y022033D01*
X003961Y022060D01*
X003948Y022088D01*
X003938Y022118D01*
X003932Y022149D01*
X003930Y022180D01*
X013430Y022180D02*
X013432Y022211D01*
X013438Y022242D01*
X013448Y022272D01*
X013461Y022300D01*
X013478Y022327D01*
X013498Y022351D01*
X013521Y022373D01*
X013546Y022391D01*
X013574Y022406D01*
X013603Y022418D01*
X013633Y022426D01*
X013664Y022430D01*
X013696Y022430D01*
X013727Y022426D01*
X013757Y022418D01*
X013786Y022406D01*
X013814Y022391D01*
X013839Y022373D01*
X013862Y022351D01*
X013882Y022327D01*
X013899Y022300D01*
X013912Y022272D01*
X013922Y022242D01*
X013928Y022211D01*
X013930Y022180D01*
X013928Y022149D01*
X013922Y022118D01*
X013912Y022088D01*
X013899Y022060D01*
X013882Y022033D01*
X013862Y022009D01*
X013839Y021987D01*
X013814Y021969D01*
X013786Y021954D01*
X013757Y021942D01*
X013727Y021934D01*
X013696Y021930D01*
X013664Y021930D01*
X013633Y021934D01*
X013603Y021942D01*
X013574Y021954D01*
X013546Y021969D01*
X013521Y021987D01*
X013498Y022009D01*
X013478Y022033D01*
X013461Y022060D01*
X013448Y022088D01*
X013438Y022118D01*
X013432Y022149D01*
X013430Y022180D01*
X022930Y022180D02*
X022932Y022211D01*
X022938Y022242D01*
X022948Y022272D01*
X022961Y022300D01*
X022978Y022327D01*
X022998Y022351D01*
X023021Y022373D01*
X023046Y022391D01*
X023074Y022406D01*
X023103Y022418D01*
X023133Y022426D01*
X023164Y022430D01*
X023196Y022430D01*
X023227Y022426D01*
X023257Y022418D01*
X023286Y022406D01*
X023314Y022391D01*
X023339Y022373D01*
X023362Y022351D01*
X023382Y022327D01*
X023399Y022300D01*
X023412Y022272D01*
X023422Y022242D01*
X023428Y022211D01*
X023430Y022180D01*
X023428Y022149D01*
X023422Y022118D01*
X023412Y022088D01*
X023399Y022060D01*
X023382Y022033D01*
X023362Y022009D01*
X023339Y021987D01*
X023314Y021969D01*
X023286Y021954D01*
X023257Y021942D01*
X023227Y021934D01*
X023196Y021930D01*
X023164Y021930D01*
X023133Y021934D01*
X023103Y021942D01*
X023074Y021954D01*
X023046Y021969D01*
X023021Y021987D01*
X022998Y022009D01*
X022978Y022033D01*
X022961Y022060D01*
X022948Y022088D01*
X022938Y022118D01*
X022932Y022149D01*
X022930Y022180D01*
X032430Y022180D02*
X032432Y022211D01*
X032438Y022242D01*
X032448Y022272D01*
X032461Y022300D01*
X032478Y022327D01*
X032498Y022351D01*
X032521Y022373D01*
X032546Y022391D01*
X032574Y022406D01*
X032603Y022418D01*
X032633Y022426D01*
X032664Y022430D01*
X032696Y022430D01*
X032727Y022426D01*
X032757Y022418D01*
X032786Y022406D01*
X032814Y022391D01*
X032839Y022373D01*
X032862Y022351D01*
X032882Y022327D01*
X032899Y022300D01*
X032912Y022272D01*
X032922Y022242D01*
X032928Y022211D01*
X032930Y022180D01*
X032928Y022149D01*
X032922Y022118D01*
X032912Y022088D01*
X032899Y022060D01*
X032882Y022033D01*
X032862Y022009D01*
X032839Y021987D01*
X032814Y021969D01*
X032786Y021954D01*
X032757Y021942D01*
X032727Y021934D01*
X032696Y021930D01*
X032664Y021930D01*
X032633Y021934D01*
X032603Y021942D01*
X032574Y021954D01*
X032546Y021969D01*
X032521Y021987D01*
X032498Y022009D01*
X032478Y022033D01*
X032461Y022060D01*
X032448Y022088D01*
X032438Y022118D01*
X032432Y022149D01*
X032430Y022180D01*
D16*
X031960Y022110D02*
X031653Y022110D01*
X031500Y022264D01*
X031653Y022417D01*
X031960Y022417D01*
X031960Y022571D02*
X031500Y022571D01*
X031653Y022724D01*
X031500Y022878D01*
X031960Y022878D01*
X031883Y023031D02*
X031960Y023108D01*
X031960Y023261D01*
X031883Y023338D01*
X031730Y023338D01*
X031653Y023261D01*
X031653Y023185D01*
X031730Y023031D01*
X031500Y023031D01*
X031500Y023338D01*
X031730Y022417D02*
X031730Y022110D01*
X031730Y021957D02*
X031807Y021880D01*
X031807Y021650D01*
X031960Y021650D02*
X031500Y021650D01*
X031500Y021880D01*
X031576Y021957D01*
X031730Y021957D01*
X031807Y021803D02*
X031960Y021957D01*
X031460Y016838D02*
X031460Y016531D01*
X031460Y016378D02*
X031000Y016378D01*
X031153Y016224D01*
X031000Y016071D01*
X031460Y016071D01*
X031460Y015917D02*
X031153Y015917D01*
X031000Y015764D01*
X031153Y015610D01*
X031460Y015610D01*
X031460Y015457D02*
X031307Y015303D01*
X031307Y015380D02*
X031307Y015150D01*
X031460Y015150D02*
X031000Y015150D01*
X031000Y015380D01*
X031076Y015457D01*
X031230Y015457D01*
X031307Y015380D01*
X031230Y015610D02*
X031230Y015917D01*
X031153Y016531D02*
X031000Y016685D01*
X031460Y016685D01*
X029014Y013560D02*
X029014Y013100D01*
X029167Y013100D02*
X028860Y013100D01*
X028707Y013100D02*
X028553Y013253D01*
X028630Y013253D02*
X028400Y013253D01*
X028400Y013100D02*
X028400Y013560D01*
X028630Y013560D01*
X028707Y013484D01*
X028707Y013330D01*
X028630Y013253D01*
X028860Y013407D02*
X029014Y013560D01*
X021960Y015150D02*
X021500Y015150D01*
X021500Y015380D01*
X021576Y015457D01*
X021730Y015457D01*
X021807Y015380D01*
X021807Y015150D01*
X021807Y015303D02*
X021960Y015457D01*
X021960Y015610D02*
X021653Y015610D01*
X021500Y015764D01*
X021653Y015917D01*
X021960Y015917D01*
X021960Y016071D02*
X021500Y016071D01*
X021653Y016224D01*
X021500Y016378D01*
X021960Y016378D01*
X021960Y016531D02*
X021653Y016838D01*
X021576Y016838D01*
X021500Y016761D01*
X021500Y016608D01*
X021576Y016531D01*
X021960Y016531D02*
X021960Y016838D01*
X021730Y015917D02*
X021730Y015610D01*
X022000Y021650D02*
X022000Y021880D01*
X022076Y021957D01*
X022230Y021957D01*
X022307Y021880D01*
X022307Y021650D01*
X022460Y021650D02*
X022000Y021650D01*
X022307Y021803D02*
X022460Y021957D01*
X022460Y022110D02*
X022153Y022110D01*
X022000Y022264D01*
X022153Y022417D01*
X022460Y022417D01*
X022460Y022571D02*
X022000Y022571D01*
X022153Y022724D01*
X022000Y022878D01*
X022460Y022878D01*
X022383Y023031D02*
X022230Y023031D01*
X022230Y023261D01*
X022307Y023338D01*
X022383Y023338D01*
X022460Y023261D01*
X022460Y023108D01*
X022383Y023031D01*
X022230Y023031D02*
X022076Y023185D01*
X022000Y023338D01*
X022230Y022417D02*
X022230Y022110D01*
X012960Y022110D02*
X012653Y022110D01*
X012500Y022264D01*
X012653Y022417D01*
X012960Y022417D01*
X012960Y022571D02*
X012500Y022571D01*
X012653Y022724D01*
X012500Y022878D01*
X012960Y022878D01*
X012960Y023031D02*
X012883Y023031D01*
X012576Y023338D01*
X012500Y023338D01*
X012500Y023031D01*
X012730Y022417D02*
X012730Y022110D01*
X012730Y021957D02*
X012807Y021880D01*
X012807Y021650D01*
X012960Y021650D02*
X012500Y021650D01*
X012500Y021880D01*
X012576Y021957D01*
X012730Y021957D01*
X012807Y021803D02*
X012960Y021957D01*
X012383Y016838D02*
X012460Y016761D01*
X012460Y016608D01*
X012383Y016531D01*
X012460Y016378D02*
X012000Y016378D01*
X012153Y016224D01*
X012000Y016071D01*
X012460Y016071D01*
X012460Y015917D02*
X012153Y015917D01*
X012000Y015764D01*
X012153Y015610D01*
X012460Y015610D01*
X012460Y015457D02*
X012307Y015303D01*
X012307Y015380D02*
X012307Y015150D01*
X012460Y015150D02*
X012000Y015150D01*
X012000Y015380D01*
X012076Y015457D01*
X012230Y015457D01*
X012307Y015380D01*
X012230Y015610D02*
X012230Y015917D01*
X012076Y016531D02*
X012000Y016608D01*
X012000Y016761D01*
X012076Y016838D01*
X012153Y016838D01*
X012230Y016761D01*
X012307Y016838D01*
X012383Y016838D01*
X012230Y016761D02*
X012230Y016685D01*
X003460Y021650D02*
X003000Y021650D01*
X003000Y021880D01*
X003076Y021957D01*
X003230Y021957D01*
X003307Y021880D01*
X003307Y021650D01*
X003307Y021803D02*
X003460Y021957D01*
X003460Y022110D02*
X003153Y022110D01*
X003000Y022264D01*
X003153Y022417D01*
X003460Y022417D01*
X003460Y022571D02*
X003000Y022571D01*
X003153Y022724D01*
X003000Y022878D01*
X003460Y022878D01*
X003383Y023031D02*
X003307Y023031D01*
X003230Y023108D01*
X003230Y023261D01*
X003307Y023338D01*
X003383Y023338D01*
X003460Y023261D01*
X003460Y023108D01*
X003383Y023031D01*
X003230Y023108D02*
X003153Y023031D01*
X003076Y023031D01*
X003000Y023108D01*
X003000Y023261D01*
X003076Y023338D01*
X003153Y023338D01*
X003230Y023261D01*
X003230Y022417D02*
X003230Y022110D01*
X002730Y016838D02*
X002730Y016531D01*
X002500Y016761D01*
X002960Y016761D01*
X002960Y016378D02*
X002500Y016378D01*
X002653Y016224D01*
X002500Y016071D01*
X002960Y016071D01*
X002960Y015917D02*
X002653Y015917D01*
X002500Y015764D01*
X002653Y015610D01*
X002960Y015610D01*
X002960Y015457D02*
X002807Y015303D01*
X002807Y015380D02*
X002807Y015150D01*
X002960Y015150D02*
X002500Y015150D01*
X002500Y015380D01*
X002576Y015457D01*
X002730Y015457D01*
X002807Y015380D01*
X002730Y015610D02*
X002730Y015917D01*
D17*
X028388Y012681D03*
X028968Y012681D03*
M02*
