G75*
%MOIN*%
%OFA0B0*%
%FSLAX24Y24*%
%IPPOS*%
%LPD*%
%AMOC8*
5,1,8,0,0,1.08239X$1,22.5*
%
%ADD10C,0.0000*%
%ADD11R,0.0540X0.3040*%
%ADD12C,0.1694*%
%ADD13R,0.0300X0.0840*%
%ADD14R,0.0591X0.0473*%
%ADD15R,0.0276X0.0906*%
%ADD16R,0.0473X0.0591*%
D10*
X005180Y005180D02*
X010180Y005180D01*
X010180Y001180D01*
X035680Y001180D01*
X035680Y005180D01*
X040930Y005180D01*
X040930Y027180D01*
X001680Y027180D01*
X001680Y010180D01*
X005180Y010180D01*
X005180Y005180D01*
X011009Y009534D02*
X011011Y009591D01*
X011017Y009648D01*
X011027Y009704D01*
X011040Y009760D01*
X011058Y009814D01*
X011079Y009867D01*
X011104Y009918D01*
X011132Y009968D01*
X011164Y010015D01*
X011198Y010061D01*
X011236Y010103D01*
X011277Y010143D01*
X011320Y010181D01*
X011366Y010215D01*
X011414Y010245D01*
X011464Y010273D01*
X011516Y010297D01*
X011570Y010317D01*
X011624Y010333D01*
X011680Y010346D01*
X011736Y010355D01*
X011793Y010360D01*
X011850Y010361D01*
X011907Y010358D01*
X011964Y010351D01*
X012020Y010340D01*
X012075Y010326D01*
X012129Y010307D01*
X012182Y010285D01*
X012233Y010260D01*
X012282Y010230D01*
X012329Y010198D01*
X012374Y010162D01*
X012416Y010124D01*
X012455Y010082D01*
X012491Y010038D01*
X012525Y009992D01*
X012555Y009943D01*
X012581Y009893D01*
X012604Y009841D01*
X012623Y009787D01*
X012639Y009732D01*
X012651Y009676D01*
X012659Y009619D01*
X012663Y009563D01*
X012663Y009505D01*
X012659Y009449D01*
X012651Y009392D01*
X012639Y009336D01*
X012623Y009281D01*
X012604Y009227D01*
X012581Y009175D01*
X012555Y009125D01*
X012525Y009076D01*
X012491Y009030D01*
X012455Y008986D01*
X012416Y008944D01*
X012374Y008906D01*
X012329Y008870D01*
X012282Y008838D01*
X012233Y008808D01*
X012182Y008783D01*
X012129Y008761D01*
X012075Y008742D01*
X012020Y008728D01*
X011964Y008717D01*
X011907Y008710D01*
X011850Y008707D01*
X011793Y008708D01*
X011736Y008713D01*
X011680Y008722D01*
X011624Y008735D01*
X011570Y008751D01*
X011516Y008771D01*
X011464Y008795D01*
X011414Y008823D01*
X011366Y008853D01*
X011320Y008887D01*
X011277Y008925D01*
X011236Y008965D01*
X011198Y009007D01*
X011164Y009053D01*
X011132Y009100D01*
X011104Y009150D01*
X011079Y009201D01*
X011058Y009254D01*
X011040Y009308D01*
X011027Y009364D01*
X011017Y009420D01*
X011011Y009477D01*
X011009Y009534D01*
X033098Y007435D02*
X033100Y007492D01*
X033106Y007549D01*
X033116Y007605D01*
X033129Y007661D01*
X033147Y007715D01*
X033168Y007768D01*
X033193Y007819D01*
X033221Y007869D01*
X033253Y007916D01*
X033287Y007962D01*
X033325Y008004D01*
X033366Y008044D01*
X033409Y008082D01*
X033455Y008116D01*
X033503Y008146D01*
X033553Y008174D01*
X033605Y008198D01*
X033659Y008218D01*
X033713Y008234D01*
X033769Y008247D01*
X033825Y008256D01*
X033882Y008261D01*
X033939Y008262D01*
X033996Y008259D01*
X034053Y008252D01*
X034109Y008241D01*
X034164Y008227D01*
X034218Y008208D01*
X034271Y008186D01*
X034322Y008161D01*
X034371Y008131D01*
X034418Y008099D01*
X034463Y008063D01*
X034505Y008025D01*
X034544Y007983D01*
X034580Y007939D01*
X034614Y007893D01*
X034644Y007844D01*
X034670Y007794D01*
X034693Y007742D01*
X034712Y007688D01*
X034728Y007633D01*
X034740Y007577D01*
X034748Y007520D01*
X034752Y007464D01*
X034752Y007406D01*
X034748Y007350D01*
X034740Y007293D01*
X034728Y007237D01*
X034712Y007182D01*
X034693Y007128D01*
X034670Y007076D01*
X034644Y007026D01*
X034614Y006977D01*
X034580Y006931D01*
X034544Y006887D01*
X034505Y006845D01*
X034463Y006807D01*
X034418Y006771D01*
X034371Y006739D01*
X034322Y006709D01*
X034271Y006684D01*
X034218Y006662D01*
X034164Y006643D01*
X034109Y006629D01*
X034053Y006618D01*
X033996Y006611D01*
X033939Y006608D01*
X033882Y006609D01*
X033825Y006614D01*
X033769Y006623D01*
X033713Y006636D01*
X033659Y006652D01*
X033605Y006672D01*
X033553Y006696D01*
X033503Y006724D01*
X033455Y006754D01*
X033409Y006788D01*
X033366Y006826D01*
X033325Y006866D01*
X033287Y006908D01*
X033253Y006954D01*
X033221Y007001D01*
X033193Y007051D01*
X033168Y007102D01*
X033147Y007155D01*
X033129Y007209D01*
X033116Y007265D01*
X033106Y007321D01*
X033100Y007378D01*
X033098Y007435D01*
D11*
X032930Y002680D03*
X031930Y002680D03*
X030930Y002680D03*
X029930Y002680D03*
X028930Y002680D03*
X027930Y002680D03*
X026930Y002680D03*
X025930Y002680D03*
X024930Y002680D03*
X023930Y002680D03*
X022930Y002680D03*
X021930Y002680D03*
X020930Y002680D03*
X019930Y002680D03*
X018930Y002680D03*
X017930Y002680D03*
X016930Y002680D03*
X015930Y002680D03*
X014930Y002680D03*
X013930Y002680D03*
X012930Y002680D03*
X011930Y002680D03*
X010930Y002680D03*
X033930Y002680D03*
X034930Y002680D03*
D12*
X033925Y007435D03*
X011836Y009534D03*
D13*
X009930Y010470D03*
X009430Y010470D03*
X008930Y010470D03*
X008430Y010470D03*
X007930Y010470D03*
X007430Y010470D03*
X006930Y010470D03*
X006930Y012890D03*
X007430Y012890D03*
X007930Y012890D03*
X008430Y012890D03*
X008930Y012890D03*
X009430Y012890D03*
X009930Y012890D03*
X015180Y012890D03*
X015680Y012890D03*
X016180Y012890D03*
X016680Y012890D03*
X017180Y012890D03*
X017680Y012890D03*
X018180Y012890D03*
X018680Y012890D03*
X020930Y012890D03*
X021430Y012890D03*
X021930Y012890D03*
X022430Y012890D03*
X022930Y012890D03*
X023430Y012890D03*
X023930Y012890D03*
X024430Y012890D03*
X027430Y011160D03*
X027930Y011160D03*
X028430Y011160D03*
X028930Y011160D03*
X029430Y011160D03*
X029930Y011160D03*
X030430Y011160D03*
X030930Y011160D03*
X031430Y011160D03*
X031930Y011160D03*
X035180Y010470D03*
X035680Y010470D03*
X036180Y010470D03*
X036680Y010470D03*
X037180Y010470D03*
X037680Y010470D03*
X038180Y010470D03*
X038680Y010470D03*
X038680Y012890D03*
X038180Y012890D03*
X037680Y012890D03*
X037180Y012890D03*
X036680Y012890D03*
X036180Y012890D03*
X035680Y012890D03*
X035180Y012890D03*
X031930Y007200D03*
X031430Y007200D03*
X030930Y007200D03*
X030430Y007200D03*
X029930Y007200D03*
X029430Y007200D03*
X028930Y007200D03*
X028430Y007200D03*
X027930Y007200D03*
X027430Y007200D03*
X024430Y006220D03*
X023930Y006220D03*
X023430Y006220D03*
X022930Y006220D03*
X022430Y006220D03*
X021930Y006220D03*
X021430Y006220D03*
X020930Y006220D03*
X018430Y006220D03*
X017930Y006220D03*
X017430Y006220D03*
X016930Y006220D03*
X016430Y006220D03*
X015930Y006220D03*
X015430Y006220D03*
X014930Y006220D03*
X014930Y008640D03*
X015430Y008640D03*
X015930Y008640D03*
X016430Y008640D03*
X016930Y008640D03*
X017430Y008640D03*
X017930Y008640D03*
X018430Y008640D03*
X020930Y008640D03*
X021430Y008640D03*
X021930Y008640D03*
X022430Y008640D03*
X022930Y008640D03*
X023430Y008640D03*
X023930Y008640D03*
X024430Y008640D03*
X024430Y010470D03*
X023930Y010470D03*
X023430Y010470D03*
X022930Y010470D03*
X022430Y010470D03*
X021930Y010470D03*
X021430Y010470D03*
X020930Y010470D03*
X018680Y010470D03*
X018180Y010470D03*
X017680Y010470D03*
X017180Y010470D03*
X016680Y010470D03*
X016180Y010470D03*
X015680Y010470D03*
X015180Y010470D03*
D14*
X013930Y012036D03*
X013930Y012824D03*
X019930Y012574D03*
X019930Y011786D03*
X019930Y008574D03*
X019930Y007786D03*
X013680Y007536D03*
X013680Y008324D03*
X005680Y012036D03*
X005680Y012824D03*
X002680Y018786D03*
X002680Y019574D03*
X003180Y025286D03*
X003180Y026074D03*
X012680Y026074D03*
X012680Y025286D03*
X012180Y019574D03*
X012180Y018786D03*
X021680Y018786D03*
X021680Y019574D03*
X022180Y025286D03*
X022180Y026074D03*
X031680Y026074D03*
X031680Y025286D03*
X031180Y019574D03*
X031180Y018786D03*
X033680Y012574D03*
X033680Y011786D03*
X026180Y010824D03*
X026180Y010036D03*
D15*
X025930Y014654D03*
X025430Y014654D03*
X024930Y014654D03*
X024430Y014654D03*
X023930Y014654D03*
X023430Y014654D03*
X022930Y014654D03*
X022430Y014654D03*
X020430Y014654D03*
X019930Y014654D03*
X019430Y014654D03*
X018930Y014654D03*
X018430Y014654D03*
X017930Y014654D03*
X017430Y014654D03*
X016930Y014654D03*
X016430Y014654D03*
X015930Y014654D03*
X015430Y014654D03*
X014930Y014654D03*
X014430Y014654D03*
X013930Y014654D03*
X013430Y014654D03*
X012930Y014654D03*
X010930Y014654D03*
X010430Y014654D03*
X009930Y014654D03*
X009430Y014654D03*
X008930Y014654D03*
X008430Y014654D03*
X007930Y014654D03*
X007430Y014654D03*
X006930Y014654D03*
X006430Y014654D03*
X005930Y014654D03*
X005430Y014654D03*
X004930Y014654D03*
X004430Y014654D03*
X003930Y014654D03*
X003430Y014654D03*
X003430Y019706D03*
X003930Y019706D03*
X004430Y019706D03*
X004930Y019706D03*
X005430Y019706D03*
X005930Y019706D03*
X006430Y019706D03*
X006930Y019706D03*
X007430Y019706D03*
X007930Y019706D03*
X008430Y019706D03*
X008930Y019706D03*
X009430Y019706D03*
X009930Y019706D03*
X010430Y019706D03*
X010930Y019706D03*
X010930Y021154D03*
X010430Y021154D03*
X009930Y021154D03*
X009430Y021154D03*
X008930Y021154D03*
X008430Y021154D03*
X007930Y021154D03*
X007430Y021154D03*
X006930Y021154D03*
X006430Y021154D03*
X005930Y021154D03*
X005430Y021154D03*
X004930Y021154D03*
X004430Y021154D03*
X003930Y021154D03*
X011430Y021154D03*
X013430Y021154D03*
X013930Y021154D03*
X014430Y021154D03*
X014930Y021154D03*
X015430Y021154D03*
X015930Y021154D03*
X016430Y021154D03*
X016930Y021154D03*
X017430Y021154D03*
X017930Y021154D03*
X018430Y021154D03*
X018930Y021154D03*
X019430Y021154D03*
X019930Y021154D03*
X020430Y021154D03*
X020930Y021154D03*
X020430Y019706D03*
X019930Y019706D03*
X019430Y019706D03*
X018930Y019706D03*
X018430Y019706D03*
X017930Y019706D03*
X017430Y019706D03*
X016930Y019706D03*
X016430Y019706D03*
X015930Y019706D03*
X015430Y019706D03*
X014930Y019706D03*
X014430Y019706D03*
X013930Y019706D03*
X013430Y019706D03*
X012930Y019706D03*
X022430Y019706D03*
X022930Y019706D03*
X023430Y019706D03*
X023930Y019706D03*
X024430Y019706D03*
X024930Y019706D03*
X025430Y019706D03*
X025930Y019706D03*
X026430Y019706D03*
X026930Y019706D03*
X027430Y019706D03*
X027930Y019706D03*
X028430Y019706D03*
X028930Y019706D03*
X029430Y019706D03*
X029930Y019706D03*
X029930Y021154D03*
X029430Y021154D03*
X028930Y021154D03*
X028430Y021154D03*
X027930Y021154D03*
X027430Y021154D03*
X026930Y021154D03*
X026430Y021154D03*
X025930Y021154D03*
X025430Y021154D03*
X024930Y021154D03*
X024430Y021154D03*
X023930Y021154D03*
X023430Y021154D03*
X022930Y021154D03*
X030430Y021154D03*
X032430Y021154D03*
X032930Y021154D03*
X033430Y021154D03*
X033930Y021154D03*
X034430Y021154D03*
X034930Y021154D03*
X035430Y021154D03*
X035930Y021154D03*
X036430Y021154D03*
X036930Y021154D03*
X037430Y021154D03*
X037930Y021154D03*
X038430Y021154D03*
X038930Y021154D03*
X039430Y021154D03*
X039930Y021154D03*
X039430Y019706D03*
X038930Y019706D03*
X038430Y019706D03*
X037930Y019706D03*
X037430Y019706D03*
X036930Y019706D03*
X036430Y019706D03*
X035930Y019706D03*
X035430Y019706D03*
X034930Y019706D03*
X034430Y019706D03*
X033930Y019706D03*
X033430Y019706D03*
X032930Y019706D03*
X032430Y019706D03*
X031930Y019706D03*
X031930Y014654D03*
X032430Y014654D03*
X032930Y014654D03*
X033430Y014654D03*
X033930Y014654D03*
X034430Y014654D03*
X034930Y014654D03*
X035430Y014654D03*
X035930Y014654D03*
X036430Y014654D03*
X036930Y014654D03*
X037430Y014654D03*
X037930Y014654D03*
X038430Y014654D03*
X038930Y014654D03*
X039430Y014654D03*
X029930Y014654D03*
X029430Y014654D03*
X028930Y014654D03*
X028430Y014654D03*
X027930Y014654D03*
X027430Y014654D03*
X026930Y014654D03*
X026430Y014654D03*
X026430Y026206D03*
X025930Y026206D03*
X025430Y026206D03*
X024930Y026206D03*
X024430Y026206D03*
X023930Y026206D03*
X023430Y026206D03*
X022930Y026206D03*
X020930Y026206D03*
X020430Y026206D03*
X019930Y026206D03*
X019430Y026206D03*
X018930Y026206D03*
X018430Y026206D03*
X017930Y026206D03*
X017430Y026206D03*
X016930Y026206D03*
X016430Y026206D03*
X015930Y026206D03*
X015430Y026206D03*
X014930Y026206D03*
X014430Y026206D03*
X013930Y026206D03*
X013430Y026206D03*
X011430Y026206D03*
X010930Y026206D03*
X010430Y026206D03*
X009930Y026206D03*
X009430Y026206D03*
X008930Y026206D03*
X008430Y026206D03*
X007930Y026206D03*
X007430Y026206D03*
X006930Y026206D03*
X006430Y026206D03*
X005930Y026206D03*
X005430Y026206D03*
X004930Y026206D03*
X004430Y026206D03*
X003930Y026206D03*
X026930Y026206D03*
X027430Y026206D03*
X027930Y026206D03*
X028430Y026206D03*
X028930Y026206D03*
X029430Y026206D03*
X029930Y026206D03*
X030430Y026206D03*
X032430Y026206D03*
X032930Y026206D03*
X033430Y026206D03*
X033930Y026206D03*
X034430Y026206D03*
X034930Y026206D03*
X035430Y026206D03*
X035930Y026206D03*
X036430Y026206D03*
X036930Y026206D03*
X037430Y026206D03*
X037930Y026206D03*
X038430Y026206D03*
X038930Y026206D03*
X039430Y026206D03*
X039930Y026206D03*
D16*
X029074Y012680D03*
X028286Y012680D03*
M02*
